<svg width="151" height="36" viewBox="0 0 151 36" fill="none" xmlns="http://www.w3.org/2000/svg">
<path d="M40.4366 18.2939V22.3259C40.4366 23.6219 41.0286 24.2699 42.2126 24.2699C43.1246 24.2699 43.7246 23.8379 44.0126 22.9739C44.0926 22.7019 44.1886 22.5179 44.3006 22.4219C44.4286 22.3259 44.6286 22.2779 44.9006 22.2779H49.7966C49.9406 22.2779 50.0606 22.3339 50.1566 22.4459C50.2686 22.5419 50.3246 22.6619 50.3246 22.8059C50.3246 24.1979 49.9246 25.3659 49.1246 26.3099C47.6526 28.0699 45.3566 28.9499 42.2366 28.9499C39.7886 28.9499 37.8366 28.4139 36.3806 27.3419C34.9246 26.2539 34.1966 24.5899 34.1966 22.3499V18.2699C34.1966 16.0779 34.9406 14.4299 36.4286 13.3259C37.9166 12.2219 39.8526 11.6699 42.2366 11.6699C45.3566 11.6699 47.6526 12.5499 49.1246 14.3099C49.9246 15.2539 50.3246 16.4219 50.3246 17.8139C50.3246 17.9579 50.2686 18.0859 50.1566 18.1979C50.0606 18.2939 49.9406 18.3419 49.7966 18.3419H44.9006C44.6446 18.3419 44.4526 18.2939 44.3246 18.1979C44.2126 18.1019 44.1086 17.9179 44.0126 17.6459C43.7086 16.7819 43.1086 16.3499 42.2126 16.3499C41.0286 16.3499 40.4366 16.9979 40.4366 18.2939ZM52.1263 23.5019V16.8779C52.1263 16.7019 52.1903 16.5499 52.3183 16.4219C52.4463 16.2939 52.5983 16.2299 52.7743 16.2299H57.3583C57.5343 16.2299 57.6863 16.2939 57.8143 16.4219C57.9423 16.5499 58.0063 16.7019 58.0063 16.8779V23.3339C58.0063 24.2139 58.4063 24.6539 59.2063 24.6539C60.0063 24.6539 60.4063 24.2139 60.4063 23.3339V16.8779C60.4063 16.7019 60.4703 16.5499 60.5983 16.4219C60.7263 16.2939 60.8783 16.2299 61.0543 16.2299H65.6143C65.7903 16.2299 65.9423 16.2939 66.0703 16.4219C66.1983 16.5499 66.2623 16.7019 66.2623 16.8779V28.0619C66.2623 28.2379 66.1983 28.3899 66.0703 28.5179C65.9423 28.6459 65.7903 28.7099 65.6143 28.7099H61.4143C61.2383 28.7099 61.0863 28.6459 60.9583 28.5179C60.8303 28.3899 60.7663 28.2379 60.7663 28.0619V27.2699C60.0143 28.3899 58.6863 28.9499 56.7823 28.9499C55.4703 28.9499 54.3663 28.4939 53.4703 27.5819C52.5743 26.6539 52.1263 25.2939 52.1263 23.5019ZM82.6446 20.2859C82.3886 20.2859 82.1646 20.3819 81.9726 20.5739C81.7966 20.7659 81.7086 21.0539 81.7086 21.4379V28.0619C81.7086 28.2379 81.6446 28.3899 81.5166 28.5179C81.3886 28.6459 81.2366 28.7099 81.0606 28.7099H76.8366C76.6606 28.7099 76.5086 28.6459 76.3806 28.5179C76.2526 28.3899 76.1886 28.2379 76.1886 28.0619V21.6059C76.1886 20.7259 75.8686 20.2859 75.2286 20.2859C74.9566 20.2859 74.7246 20.3899 74.5326 20.5979C74.3566 20.7899 74.2686 21.0619 74.2686 21.4139V28.0619C74.2686 28.2379 74.2046 28.3899 74.0766 28.5179C73.9486 28.6459 73.7966 28.7099 73.6206 28.7099H69.3006C69.1246 28.7099 68.9726 28.6459 68.8446 28.5179C68.7166 28.3899 68.6526 28.2379 68.6526 28.0619V16.8779C68.6526 16.7019 68.7166 16.5499 68.8446 16.4219C68.9726 16.2939 69.1246 16.2299 69.3006 16.2299H73.2606C73.4366 16.2299 73.5886 16.2939 73.7166 16.4219C73.8446 16.5499 73.9086 16.7019 73.9086 16.8779V17.6699C74.2286 17.2539 74.6846 16.8779 75.2766 16.5419C75.9326 16.1739 76.6686 15.9899 77.4846 15.9899C79.2446 15.9899 80.4286 16.6459 81.0366 17.9579C81.4206 17.3979 81.9486 16.9339 82.6206 16.5659C83.2926 16.1819 83.9886 15.9899 84.7086 15.9899C86.0046 15.9899 87.0606 16.4459 87.8766 17.3579C88.7086 18.2699 89.1246 19.6299 89.1246 21.4379V28.0619C89.1246 28.2379 89.0606 28.3899 88.9326 28.5179C88.8046 28.6459 88.6526 28.7099 88.4766 28.7099H84.2526C84.0766 28.7099 83.9246 28.6459 83.7966 28.5179C83.6686 28.3899 83.6046 28.2379 83.6046 28.0619V21.6059C83.6046 20.7259 83.2846 20.2859 82.6446 20.2859ZM96.9304 21.6299V23.3099C96.9304 23.8539 97.0024 24.2459 97.1464 24.4859C97.2904 24.7259 97.5144 24.8459 97.8184 24.8459C98.1224 24.8459 98.3304 24.7979 98.4424 24.7019C98.5544 24.5899 98.6664 24.3899 98.7784 24.1019C98.9064 23.7979 99.1384 23.6459 99.4744 23.6459H104.154C104.33 23.6459 104.482 23.7099 104.61 23.8379C104.738 23.9659 104.802 24.1339 104.802 24.3419C104.802 24.5499 104.73 24.8299 104.586 25.1819C104.442 25.5339 104.194 25.9339 103.842 26.3819C103.49 26.8299 103.058 27.2459 102.546 27.6299C102.034 27.9979 101.362 28.3099 100.53 28.5659C99.6984 28.8219 98.7784 28.9499 97.7704 28.9499C95.7704 28.9499 94.1464 28.4299 92.8984 27.3899C91.6664 26.3339 91.0504 24.8779 91.0504 23.0219V21.9179C91.0504 20.0619 91.6664 18.6139 92.8984 17.5739C94.1464 16.5179 95.7704 15.9899 97.7704 15.9899C98.9544 15.9899 100.026 16.1739 100.986 16.5419C101.946 16.8939 102.682 17.3339 103.194 17.8619C103.722 18.3739 104.122 18.8779 104.394 19.3739C104.666 19.8699 104.802 20.2539 104.802 20.5259C104.802 20.7819 104.738 20.9739 104.61 21.1019C104.482 21.2299 104.33 21.2939 104.154 21.2939H99.4744C99.1704 21.2939 98.9384 21.1339 98.7784 20.8139C98.5544 20.3339 98.2584 20.0939 97.8904 20.0939C97.2504 20.0939 96.9304 20.6059 96.9304 21.6299ZM106.355 23.2859V21.6539C106.355 19.8299 107.003 18.4299 108.299 17.4539C109.595 16.4779 111.267 15.9899 113.315 15.9899C115.363 15.9899 117.035 16.4779 118.331 17.4539C119.627 18.4299 120.275 19.8299 120.275 21.6539V23.2859C120.275 25.1259 119.651 26.5339 118.403 27.5099C117.155 28.4699 115.459 28.9499 113.315 28.9499C111.171 28.9499 109.475 28.4699 108.227 27.5099C106.979 26.5339 106.355 25.1259 106.355 23.2859ZM114.395 23.4779V21.4619C114.395 20.8539 114.315 20.4299 114.155 20.1899C113.995 19.9499 113.715 19.8299 113.315 19.8299C112.915 19.8299 112.635 19.9499 112.475 20.1899C112.315 20.4299 112.235 20.8539 112.235 21.4619V23.4779C112.235 24.1179 112.315 24.5499 112.475 24.7739C112.635 24.9979 112.915 25.1099 113.315 25.1099C113.715 25.1099 113.995 24.9899 114.155 24.7499C114.315 24.5099 114.395 24.0859 114.395 23.4779ZM127.58 16.8779V17.7179C128.7 16.7259 129.948 16.2299 131.324 16.2299H132.476C132.652 16.2299 132.804 16.2939 132.932 16.4219C133.06 16.5499 133.124 16.7019 133.124 16.8779V20.6219C133.124 20.7979 133.06 20.9499 132.932 21.0779C132.804 21.2059 132.652 21.2699 132.476 21.2699H129.38C128.948 21.2699 128.604 21.3739 128.348 21.5819C128.108 21.7739 127.972 22.0379 127.94 22.3739V28.0619C127.94 28.2379 127.876 28.3899 127.748 28.5179C127.62 28.6459 127.468 28.7099 127.292 28.7099H122.732C122.556 28.7099 122.404 28.6459 122.276 28.5179C122.148 28.3899 122.084 28.2379 122.084 28.0619V16.8779C122.084 16.7019 122.148 16.5499 122.276 16.4219C122.404 16.2939 122.556 16.2299 122.732 16.2299H126.932C127.108 16.2299 127.26 16.2939 127.388 16.4219C127.516 16.5499 127.58 16.7019 127.58 16.8779ZM134.691 23.4059V21.5099C134.691 19.7179 135.171 18.3499 136.131 17.4059C137.091 16.4619 138.259 15.9899 139.635 15.9899C141.027 15.9899 142.139 16.3659 142.971 17.1179V12.3179C142.971 12.1419 143.035 11.9899 143.163 11.8619C143.291 11.7339 143.443 11.6699 143.619 11.6699H148.059C148.235 11.6699 148.387 11.7339 148.515 11.8619C148.643 11.9899 148.707 12.1419 148.707 12.3179V28.0619C148.707 28.2379 148.643 28.3899 148.515 28.5179C148.387 28.6459 148.235 28.7099 148.059 28.7099H143.979C143.803 28.7099 143.651 28.6459 143.523 28.5179C143.395 28.3899 143.331 28.2379 143.331 28.0619V27.3419C142.499 28.4139 141.323 28.9499 139.803 28.9499C138.283 28.9499 137.051 28.5019 136.107 27.6059C135.163 26.6939 134.691 25.2939 134.691 23.4059ZM142.971 23.2619V21.4859C142.923 20.6859 142.523 20.2859 141.771 20.2859C140.971 20.2859 140.571 20.7499 140.571 21.6779V23.2619C140.571 24.1899 140.971 24.6539 141.771 24.6539C142.571 24.6539 142.971 24.1899 142.971 23.2619Z" fill="white"/>
<path d="M25.149 22.6556C25.149 29.8653 19.7819 35.7099 12.5745 35.7099C5.36719 35.7099 0 29.8653 0 22.6556C0 15.4459 12.5745 0 12.5745 0C12.5745 0 25.149 15.4459 25.149 22.6556Z" fill="white"/>
</svg>
